<?xml version="1.0"?>
<!DOCTYPE svg PUBLIC "-//W3C//DTD SVG 1.1//EN" "http://www.w3.org/Graphics/SVG/1.1/DTD/svg11.dtd">
            <svg xmlns="http://www.w3.org/2000/svg" version="1.1"
    width="264.5669291338583"
    height="264.5669291338583"
    viewbox="0 0 264.5669291338583 264.5669291338583">
            <desc>Laser SVG Slices from Object: Sphere_net. Exported from Blender3D with the Laser Slicer Script</desc>

<g
value="0.0002750009298324585"
transform="0">
<polygon points="194.8687,256.4146 132.2835,256.4146 69.6982,256.4146 8.1523,194.8687 8.1523,132.2835 8.1523,69.6982 69.6982,8.1523 132.2835,8.1523 194.8687,8.1523 256.4146,69.6982 256.4146,132.2835 256.4146,194.8687 194.8687,256.4146" style="fill:none;stroke:rgb(0,0,0);stroke-width:1.0" />
</g>
<g
value="0.000824999064207077"
transform="0">
<polygon points="194.8687,254.3359 132.2835,254.3359 69.6982,254.3359 10.231,194.8687 10.231,132.2835 10.231,69.6982 69.6982,10.231 132.2835,10.231 194.8687,10.231 254.3359,69.6982 254.3359,132.2835 254.3359,194.8687 194.8687,254.3359" style="fill:none;stroke:rgb(0,0,0);stroke-width:1.0" />
</g>
<g
value="0.0013749999925494194"
transform="0">
<polygon points="194.8687,252.2571 132.2835,252.2571 69.6982,252.2571 12.3098,194.8687 12.3098,132.2835 12.3098,69.6982 69.6982,12.3098 132.2835,12.3098 194.8687,12.3098 252.2571,69.6982 252.2571,132.2835 252.2571,194.8687 194.8687,252.2571" style="fill:none;stroke:rgb(0,0,0);stroke-width:1.0" />
</g>
<g
value="0.0019249999895691872"
transform="0">
<polygon points="194.8687,250.1784 132.2835,250.1784 69.6982,250.1784 14.3885,194.8687 14.3885,132.2835 14.3885,69.6982 69.6982,14.3885 132.2835,14.3885 194.8687,14.3885 250.1784,69.6982 250.1784,132.2835 250.1784,194.8687 194.8687,250.1784" style="fill:none;stroke:rgb(0,0,0);stroke-width:1.0" />
</g>
<g
value="0.002474999986588955"
transform="0">
<polygon points="194.8687,248.0997 132.2835,248.0997 69.6982,248.0997 16.4673,194.8687 16.4673,132.2835 16.4673,69.6982 69.6982,16.4673 132.2835,16.4673 194.8687,16.4673 248.0997,69.6982 248.0997,132.2835 248.0997,194.8687 194.8687,248.0997" style="fill:none;stroke:rgb(0,0,0);stroke-width:1.0" />
</g>
<g
value="0.0030249999836087227"
transform="0">
<polygon points="194.8687,246.0209 132.2835,246.0209 69.6982,246.0209 18.546,194.8687 18.546,132.2835 18.546,69.6982 69.6982,18.546 132.2835,18.546 194.8687,18.546 246.0209,69.6982 246.0209,132.2835 246.0209,194.8687 194.8687,246.0209" style="fill:none;stroke:rgb(0,0,0);stroke-width:1.0" />
</g>
<g
value="0.0035749999806284904"
transform="0">
<polygon points="194.8687,243.9422 132.2835,243.9422 69.6982,243.9422 20.6248,194.8687 20.6248,132.2835 20.6248,69.6982 69.6982,20.6248 132.2835,20.6248 194.8687,20.6248 243.9422,69.6982 243.9422,132.2835 243.9422,194.8687 194.8687,243.9422" style="fill:none;stroke:rgb(0,0,0);stroke-width:1.0" />
</g>
<g
value="0.004124999977648258"
transform="0">
<polygon points="194.8687,241.8634 132.2835,241.8634 69.6982,241.8634 22.7035,194.8687 22.7035,132.2835 22.7035,69.6982 69.6982,22.7035 132.2835,22.7035 194.8687,22.7035 241.8634,69.6982 241.8634,132.2835 241.8634,194.8687 194.8687,241.8634" style="fill:none;stroke:rgb(0,0,0);stroke-width:1.0" />
</g>
<g
value="0.004674999974668026"
transform="0">
<polygon points="194.8687,239.7847 132.2835,239.7847 69.6982,239.7847 24.7822,194.8687 24.7822,132.2835 24.7822,69.6982 69.6982,24.7822 132.2835,24.7822 194.8687,24.7822 239.7847,69.6982 239.7847,132.2835 239.7847,194.8687 194.8687,239.7847" style="fill:none;stroke:rgb(0,0,0);stroke-width:1.0" />
</g>
<g
value="0.005224999971687794"
transform="0">
<polygon points="194.8687,237.706 132.2835,237.706 69.6982,237.706 26.861,194.8687 26.861,132.2835 26.861,69.6982 69.6982,26.861 132.2835,26.861 194.8687,26.861 237.706,69.6982 237.706,132.2835 237.706,194.8687 194.8687,237.706" style="fill:none;stroke:rgb(0,0,0);stroke-width:1.0" />
</g>
<g
value="0.0057749999687075615"
transform="0">
<polygon points="194.8687,235.6272 132.2835,235.6272 69.6982,235.6272 28.9397,194.8687 28.9397,132.2835 28.9397,69.6982 69.6982,28.9397 132.2835,28.9397 194.8687,28.9397 235.6272,69.6982 235.6272,132.2835 235.6272,194.8687 194.8687,235.6272" style="fill:none;stroke:rgb(0,0,0);stroke-width:1.0" />
</g>
<g
value="0.006324999034404755"
transform="0">
<polygon points="194.8687,233.5485 132.2835,233.5485 69.6982,233.5485 31.0184,194.8687 31.0184,132.2835 31.0184,69.6982 69.6982,31.0184 132.2835,31.0184 194.8687,31.0184 233.5485,69.6982 233.5485,132.2835 233.5485,194.8687 194.8687,233.5485" style="fill:none;stroke:rgb(0,0,0);stroke-width:1.0" />
</g>
<g
value="0.006874999962747097"
transform="0">
<polygon points="194.8687,231.4697 132.2835,231.4697 69.6982,231.4697 33.0972,194.8687 33.0972,132.2835 33.0972,69.6982 69.6982,33.0972 132.2835,33.0972 194.8687,33.0972 231.4697,69.6982 231.4697,132.2835 231.4697,194.8687 194.8687,231.4697" style="fill:none;stroke:rgb(0,0,0);stroke-width:1.0" />
</g>
<g
value="0.007424999959766865"
transform="0">
<polygon points="194.8687,229.391 132.2835,229.391 69.6982,229.391 35.1759,194.8687 35.1759,132.2835 35.1759,69.6982 69.6982,35.1759 132.2835,35.1759 194.8687,35.1759 229.391,69.6982 229.391,132.2835 229.391,194.8687 194.8687,229.391" style="fill:none;stroke:rgb(0,0,0);stroke-width:1.0" />
</g>
<g
value="0.007974999956786633"
transform="0">
<polygon points="194.8687,227.3123 132.2835,227.3123 69.6982,227.3123 37.2547,194.8687 37.2547,132.2835 37.2547,69.6982 69.6982,37.2547 132.2835,37.2547 194.8687,37.2547 227.3123,69.6982 227.3123,132.2835 227.3123,194.8687 194.8687,227.3123" style="fill:none;stroke:rgb(0,0,0);stroke-width:1.0" />
</g>
<g
value="0.0085249999538064"
transform="0">
<polygon points="194.8687,225.2335 132.2835,225.2335 69.6982,225.2335 39.3334,194.8687 39.3334,132.2835 39.3334,69.6982 69.6982,39.3334 132.2835,39.3334 194.8687,39.3334 225.2335,69.6982 225.2335,132.2835 225.2335,194.8687 194.8687,225.2335" style="fill:none;stroke:rgb(0,0,0);stroke-width:1.0" />
</g>
<g
value="0.0085249999538064"
transform="0">
<polygon points="134.1391,132.2835 132.2835,134.1391 130.4278,132.2835 132.2835,130.4278 134.1391,132.2835" style="fill:none;stroke:rgb(0,0,0);stroke-width:1.0" />
</g>
<g
value="0.009074999950826168"
transform="0">
<polygon points="194.8687,223.1548 132.2835,223.1548 69.6982,223.1548 41.4122,194.8687 41.4122,132.2835 41.4122,69.6982 69.6982,41.4122 132.2835,41.4122 194.8687,41.4122 223.1548,69.6982 223.1548,132.2835 223.1548,194.8687 194.8687,223.1548" style="fill:none;stroke:rgb(0,0,0);stroke-width:1.0" />
</g>
<g
value="0.009074999950826168"
transform="0">
<polygon points="138.2966,132.2835 132.2835,138.2966 126.2703,132.2835 132.2835,126.2703 138.2966,132.2835" style="fill:none;stroke:rgb(0,0,0);stroke-width:1.0" />
</g>
<g
value="0.009624999947845936"
transform="0">
<polygon points="194.8687,221.076 132.2835,221.076 69.6982,221.076 43.4909,194.8687 43.4909,132.2835 43.4909,69.6982 69.6982,43.4909 132.2835,43.4909 194.8687,43.4909 221.076,69.6982 221.076,132.2835 221.076,194.8687 194.8687,221.076" style="fill:none;stroke:rgb(0,0,0);stroke-width:1.0" />
</g>
<g
value="0.009624999947845936"
transform="0">
<polygon points="142.4541,132.2835 132.2835,142.4541 122.1128,132.2835 132.2835,122.1128 142.4541,132.2835" style="fill:none;stroke:rgb(0,0,0);stroke-width:1.0" />
</g>
<g
value="0.010174999944865704"
transform="0">
<polygon points="194.8687,218.9973 132.2835,218.9973 69.6982,218.9973 45.5696,194.8687 45.5696,132.2835 45.5696,69.6982 69.6982,45.5696 132.2835,45.5696 194.8687,45.5696 218.9973,69.6982 218.9973,132.2835 218.9973,194.8687 194.8687,218.9973" style="fill:none;stroke:rgb(0,0,0);stroke-width:1.0" />
</g>
<g
value="0.010174999944865704"
transform="0">
<polygon points="146.6116,132.2835 132.2835,146.6116 117.9553,132.2835 132.2835,117.9553 146.6116,132.2835" style="fill:none;stroke:rgb(0,0,0);stroke-width:1.0" />
</g>
<g
value="0.010724999941885471"
transform="0">
<polygon points="194.8687,216.9186 132.2835,216.9186 69.6982,216.9186 47.6484,194.8687 47.6484,132.2835 47.6484,69.6982 69.6982,47.6484 132.2835,47.6484 194.8687,47.6484 216.9186,69.6982 216.9186,132.2835 216.9186,194.8687 194.8687,216.9186" style="fill:none;stroke:rgb(0,0,0);stroke-width:1.0" />
</g>
<g
value="0.010724999941885471"
transform="0">
<polygon points="150.7691,132.2835 132.2835,150.7691 113.7979,132.2835 132.2835,113.7979 150.7691,132.2835" style="fill:none;stroke:rgb(0,0,0);stroke-width:1.0" />
</g>
<g
value="0.011274999938905239"
transform="0">
<polygon points="194.8687,214.8398 132.2835,214.8398 69.6982,214.8398 49.7271,194.8687 49.7271,132.2835 49.7271,69.6982 69.6982,49.7271 132.2835,49.7271 194.8687,49.7271 214.8398,69.6982 214.8398,132.2835 214.8398,194.8687 194.8687,214.8398" style="fill:none;stroke:rgb(0,0,0);stroke-width:1.0" />
</g>
<g
value="0.011274999938905239"
transform="0">
<polygon points="154.9265,132.2835 132.2835,154.9265 109.6404,132.2835 132.2835,109.6404 154.9265,132.2835" style="fill:none;stroke:rgb(0,0,0);stroke-width:1.0" />
</g>
<g
value="0.011824999935925007"
transform="0">
<polygon points="194.8687,212.7611 132.2835,212.7611 69.6982,212.7611 51.8058,194.8687 51.8058,132.2835 51.8058,69.6982 69.6982,51.8058 132.2835,51.8058 194.8687,51.8058 212.7611,69.6982 212.7611,132.2835 212.7611,194.8687 194.8687,212.7611" style="fill:none;stroke:rgb(0,0,0);stroke-width:1.0" />
</g>
<g
value="0.011824999935925007"
transform="0">
<polygon points="159.084,132.2835 132.2835,159.084 105.4829,132.2835 132.2835,105.4829 159.084,132.2835" style="fill:none;stroke:rgb(0,0,0);stroke-width:1.0" />
</g>
<g
value="0.012374999932944775"
transform="0">
<polygon points="194.8687,210.6823 132.2835,210.6823 69.6982,210.6823 53.8846,194.8687 53.8846,132.2835 53.8846,69.6982 69.6982,53.8846 132.2835,53.8846 194.8687,53.8846 210.6823,69.6982 210.6823,132.2835 210.6823,194.8687 194.8687,210.6823" style="fill:none;stroke:rgb(0,0,0);stroke-width:1.0" />
</g>
<g
value="0.012374999932944775"
transform="0">
<polygon points="163.2415,132.2835 132.2835,163.2415 101.3254,132.2835 132.2835,101.3254 163.2415,132.2835" style="fill:none;stroke:rgb(0,0,0);stroke-width:1.0" />
</g>
<g
value="0.012924999929964542"
transform="0">
<polygon points="194.8687,208.6036 132.2835,208.6036 69.6982,208.6036 55.9633,194.8687 55.9633,132.2835 55.9633,69.6982 69.6982,55.9633 132.2835,55.9633 194.8687,55.9633 208.6036,69.6982 208.6036,132.2835 208.6036,194.8687 194.8687,208.6036" style="fill:none;stroke:rgb(0,0,0);stroke-width:1.0" />
</g>
<g
value="0.012924999929964542"
transform="0">
<polygon points="167.399,132.2835 132.2835,167.399 97.1679,132.2835 132.2835,97.1679 167.399,132.2835" style="fill:none;stroke:rgb(0,0,0);stroke-width:1.0" />
</g>
<g
value="0.01347499992698431"
transform="0">
<polygon points="194.8687,206.5249 132.2835,206.5249 69.6982,206.5249 58.0421,194.8687 58.0421,132.2835 58.0421,69.6982 69.6982,58.0421 132.2835,58.0421 194.8687,58.0421 206.5249,69.6982 206.5249,132.2835 206.5249,194.8687 194.8687,206.5249" style="fill:none;stroke:rgb(0,0,0);stroke-width:1.0" />
</g>
<g
value="0.01347499992698431"
transform="0">
<polygon points="171.5565,132.2835 132.2835,171.5565 93.01049999999999,132.2835 132.2835,93.01049999999999 171.5565,132.2835" style="fill:none;stroke:rgb(0,0,0);stroke-width:1.0" />
</g>
<g
value="0.014024999924004078"
transform="0">
<polygon points="194.8687,204.4461 132.2835,204.4461 69.6982,204.4461 60.1208,194.8687 60.1208,132.2835 60.1208,69.6982 69.6982,60.1208 132.2835,60.1208 194.8687,60.1208 204.4461,69.6982 204.4461,132.2835 204.4461,194.8687 194.8687,204.4461" style="fill:none;stroke:rgb(0,0,0);stroke-width:1.0" />
</g>
<g
value="0.014024999924004078"
transform="0">
<polygon points="175.7139,132.2835 132.2835,175.7139 88.85299999999999,132.2835 132.2835,88.85299999999999 175.7139,132.2835" style="fill:none;stroke:rgb(0,0,0);stroke-width:1.0" />
</g>
<g
value="0.014574999921023846"
transform="0">
<polygon points="194.8687,202.3674 132.2835,202.3674 69.6982,202.3674 62.1996,194.8687 62.1996,132.2835 62.1996,69.6982 69.6982,62.1996 132.2835,62.1996 194.8687,62.1996 202.3674,69.6982 202.3674,132.2835 202.3674,194.8687 194.8687,202.3674" style="fill:none;stroke:rgb(0,0,0);stroke-width:1.0" />
</g>
<g
value="0.014574999921023846"
transform="0">
<polygon points="179.8714,132.2835 132.2835,179.8714 84.6955,132.2835 132.2835,84.6955 179.8714,132.2835" style="fill:none;stroke:rgb(0,0,0);stroke-width:1.0" />
</g>
<g
value="0.015124999918043613"
transform="0">
<polygon points="194.8687,200.2886 132.2835,200.2886 69.6982,200.2886 64.2783,194.8687 64.2783,132.2835 64.2783,69.6982 69.6982,64.2783 132.2835,64.2783 194.8687,64.2783 200.2886,69.6982 200.2886,132.2835 200.2886,194.8687 194.8687,200.2886" style="fill:none;stroke:rgb(0,0,0);stroke-width:1.0" />
</g>
<g
value="0.015124999918043613"
transform="0">
<polygon points="184.0289,132.2835 132.2835,184.0289 80.538,132.2835 132.2835,80.538 184.0289,132.2835" style="fill:none;stroke:rgb(0,0,0);stroke-width:1.0" />
</g>
<g
value="0.015675000846385956"
transform="0">
<polygon points="194.8687,198.2099 132.2835,198.2099 69.6982,198.2099 66.357,194.8687 66.357,132.2835 66.357,69.6982 69.6982,66.357 132.2835,66.357 194.8687,66.357 198.2099,69.6982 198.2099,132.2835 198.2099,194.8687 194.8687,198.2099" style="fill:none;stroke:rgb(0,0,0);stroke-width:1.0" />
</g>
<g
value="0.015675000846385956"
transform="0">
<polygon points="188.1864,132.2835 132.2835,188.1864 76.3805,132.2835 132.2835,76.3805 188.1864,132.2835" style="fill:none;stroke:rgb(0,0,0);stroke-width:1.0" />
</g>
<g
value="0.016225000843405724"
transform="0">
<polygon points="194.8687,196.1312 132.2835,196.1312 69.6982,196.1312 68.4358,194.8687 68.4358,132.2835 68.4358,69.6982 69.6982,68.4358 132.2835,68.4358 194.8687,68.4358 196.1312,69.6982 196.1312,132.2835 196.1312,194.8687 194.8687,196.1312" style="fill:none;stroke:rgb(0,0,0);stroke-width:1.0" />
</g>
<g
value="0.016225000843405724"
transform="0">
<polygon points="192.3439,132.2835 132.2835,192.3439 72.2231,132.2835 132.2835,72.2231 192.3439,132.2835" style="fill:none;stroke:rgb(0,0,0);stroke-width:1.0" />
</g>
</svg>
