<?xml version="1.0"?>
<!DOCTYPE svg PUBLIC "-//W3C//DTD SVG 1.1//EN" "http://www.w3.org/Graphics/SVG/1.1/DTD/svg11.dtd">
            <svg xmlns="http://www.w3.org/2000/svg" version="1.1"
    width="264.5669291338583"
    height="264.5669291338583"
    viewbox="0 0 264.5669291338583 264.5669291338583">
            <desc>Laser SVG Slices from Object: Sphere_net. Exported from Blender3D with the Laser Slicer Script</desc>

<g
value="0.0002850000746548176"
transform="0">
<polygon points="246.7333,259.0641 233.2686,259.0641 219.8039,259.0641 206.3393,259.0641 192.8746,259.0641 179.4099,259.0641 165.9452,259.0641 152.4805,259.0641 139.0158,259.0641 125.5511,259.0641 112.0864,259.0641 98.6217,259.0641 85.1571,259.0641 71.69240000000001,259.0641 58.2277,259.0641 44.763,259.0641 31.2983,259.0641 17.8336,259.0641 5.5028,246.7333 5.5028,233.2686 5.5028,219.8039 5.5028,206.3393 5.5028,192.8746 5.5028,179.4099 5.5028,165.9452 5.5028,152.4805 5.5028,139.0158 5.5028,125.5511 5.5028,112.0864 5.5028,98.6217 5.5028,85.1571 5.5028,71.69240000000001 5.5028,58.2277 5.5028,44.763 5.5028,31.2983 5.5028,17.8336 17.8336,5.5028 31.2983,5.5028 44.763,5.5028 58.2277,5.5028 71.69240000000001,5.5028 85.1571,5.5028 98.6217,5.5028 112.0864,5.5028 125.5511,5.5028 139.0158,5.5028 152.4805,5.5028 165.9452,5.5028 179.4099,5.5028 192.8746,5.5028 206.3393,5.5028 219.8039,5.5028 233.2686,5.5028 246.7333,5.5028 259.0641,17.8336 259.0641,31.2983 259.0641,44.763 259.0641,58.2277 259.0641,71.69240000000001 259.0641,85.1571 259.0641,98.6217 259.0641,112.0864 259.0641,125.5511 259.0641,139.0158 259.0641,152.4805 259.0641,165.9452 259.0641,179.4099 259.0641,192.8746 259.0641,206.3393 259.0641,219.8039 259.0641,233.2686 259.0641,246.7333 246.7333,259.0641" style="fill:none;stroke:rgb(0,0,0);stroke-width:1.0" />
</g>
<g
value="0.0008549999911338091"
transform="0">
<polygon points="246.7333,256.7964 233.2686,256.7964 219.8039,256.7964 206.3393,256.7964 192.8746,256.7964 179.4099,256.7964 165.9452,256.7964 152.4805,256.7964 139.0158,256.7964 125.5511,256.7964 112.0864,256.7964 98.6217,256.7964 85.1571,256.7964 71.69240000000001,256.7964 58.2277,256.7964 44.763,256.7964 31.2983,256.7964 17.8336,256.7964 7.7705,246.7333 7.7705,233.2686 7.7705,219.8039 7.7705,206.3393 7.7705,192.8746 7.7705,179.4099 7.7705,165.9452 7.7705,152.4805 7.7705,139.0158 7.7705,125.5511 7.7705,112.0864 7.7705,98.6217 7.7705,85.1571 7.7705,71.69240000000001 7.7705,58.2277 7.7705,44.763 7.7705,31.2983 7.7705,17.8336 17.8336,7.7705 31.2983,7.7705 44.763,7.7705 58.2277,7.7705 71.69240000000001,7.7705 85.1571,7.7705 98.6217,7.7705 112.0864,7.7705 125.5511,7.7705 139.0158,7.7705 152.4805,7.7705 165.9452,7.7705 179.4099,7.7705 192.8746,7.7705 206.3393,7.7705 219.8039,7.7705 233.2686,7.7705 246.7333,7.7705 256.7964,17.8336 256.7964,31.2983 256.7964,44.763 256.7964,58.2277 256.7964,71.69240000000001 256.7964,85.1571 256.7964,98.6217 256.7964,112.0864 256.7964,125.5511 256.7964,139.0158 256.7964,152.4805 256.7964,165.9452 256.7964,179.4099 256.7964,192.8746 256.7964,206.3393 256.7964,219.8039 256.7964,233.2686 256.7964,246.7333 246.7333,256.7964" style="fill:none;stroke:rgb(0,0,0);stroke-width:1.0" />
</g>
<g
value="0.0014249999076128006"
transform="0">
<polygon points="246.7333,254.5287 233.2686,254.5287 219.8039,254.5287 206.3393,254.5287 192.8746,254.5287 179.4099,254.5287 165.9452,254.5287 152.4805,254.5287 139.0158,254.5287 125.5511,254.5287 112.0864,254.5287 98.6217,254.5287 85.1571,254.5287 71.69240000000001,254.5287 58.2277,254.5287 44.763,254.5287 31.2983,254.5287 17.8336,254.5287 10.0382,246.7333 10.0382,233.2686 10.0382,219.8039 10.0382,206.3393 10.0382,192.8746 10.0382,179.4099 10.0382,165.9452 10.0382,152.4805 10.0382,139.0158 10.0382,125.5511 10.0382,112.0864 10.0382,98.6217 10.0382,85.1571 10.0382,71.69240000000001 10.0382,58.2277 10.0382,44.763 10.0382,31.2983 10.0382,17.8336 17.8336,10.0382 31.2983,10.0382 44.763,10.0382 58.2277,10.0382 71.69240000000001,10.0382 85.1571,10.0382 98.6217,10.0382 112.0864,10.0382 125.5511,10.0382 139.0158,10.0382 152.4805,10.0382 165.9452,10.0382 179.4099,10.0382 192.8746,10.0382 206.3393,10.0382 219.8039,10.0382 233.2686,10.0382 246.7333,10.0382 254.5287,17.8336 254.5287,31.2983 254.5287,44.763 254.5287,58.2277 254.5287,71.69240000000001 254.5287,85.1571 254.5287,98.6217 254.5287,112.0864 254.5287,125.5511 254.5287,139.0158 254.5287,152.4805 254.5287,165.9452 254.5287,179.4099 254.5287,192.8746 254.5287,206.3393 254.5287,219.8039 254.5287,233.2686 254.5287,246.7333 246.7333,254.5287" style="fill:none;stroke:rgb(0,0,0);stroke-width:1.0" />
</g>
<g
value="0.0019950000569224358"
transform="0">
<polygon points="246.7333,252.261 233.2686,252.261 219.8039,252.261 206.3393,252.261 192.8746,252.261 179.4099,252.261 165.9452,252.261 152.4805,252.261 139.0158,252.261 125.5511,252.261 112.0864,252.261 98.6217,252.261 85.1571,252.261 71.69240000000001,252.261 58.2277,252.261 44.763,252.261 31.2983,252.261 17.8336,252.261 12.3059,246.7333 12.3059,233.2686 12.3059,219.8039 12.3059,206.3393 12.3059,192.8746 12.3059,179.4099 12.3059,165.9452 12.3059,152.4805 12.3059,139.0158 12.3059,125.5511 12.3059,112.0864 12.3059,98.6217 12.3059,85.1571 12.3059,71.69240000000001 12.3059,58.2277 12.3059,44.763 12.3059,31.2983 12.3059,17.8336 17.8336,12.3059 31.2983,12.3059 44.763,12.3059 58.2277,12.3059 71.69240000000001,12.3059 85.1571,12.3059 98.6217,12.3059 112.0864,12.3059 125.5511,12.3059 139.0158,12.3059 152.4805,12.3059 165.9452,12.3059 179.4099,12.3059 192.8746,12.3059 206.3393,12.3059 219.8039,12.3059 233.2686,12.3059 246.7333,12.3059 252.261,17.8336 252.261,31.2983 252.261,44.763 252.261,58.2277 252.261,71.69240000000001 252.261,85.1571 252.261,98.6217 252.261,112.0864 252.261,125.5511 252.261,139.0158 252.261,152.4805 252.261,165.9452 252.261,179.4099 252.261,192.8746 252.261,206.3393 252.261,219.8039 252.261,233.2686 252.261,246.7333 246.7333,252.261" style="fill:none;stroke:rgb(0,0,0);stroke-width:1.0" />
</g>
<g
value="0.0025649999734014273"
transform="0">
<polygon points="246.7333,249.9933 233.2686,249.9933 219.8039,249.9933 206.3393,249.9933 192.8746,249.9933 179.4099,249.9933 165.9452,249.9933 152.4805,249.9933 139.0158,249.9933 125.5511,249.9933 112.0864,249.9933 98.6217,249.9933 85.1571,249.9933 71.69240000000001,249.9933 58.2277,249.9933 44.763,249.9933 31.2983,249.9933 17.8336,249.9933 14.5736,246.7333 14.5736,233.2686 14.5736,219.8039 14.5736,206.3393 14.5736,192.8746 14.5736,179.4099 14.5736,165.9452 14.5736,152.4805 14.5736,139.0158 14.5736,125.5511 14.5736,112.0864 14.5736,98.6217 14.5736,85.1571 14.5736,71.69240000000001 14.5736,58.2277 14.5736,44.763 14.5736,31.2983 14.5736,17.8336 17.8336,14.5736 31.2983,14.5736 44.763,14.5736 58.2277,14.5736 71.69240000000001,14.5736 85.1571,14.5736 98.6217,14.5736 112.0864,14.5736 125.5511,14.5736 139.0158,14.5736 152.4805,14.5736 165.9452,14.5736 179.4099,14.5736 192.8746,14.5736 206.3393,14.5736 219.8039,14.5736 233.2686,14.5736 246.7333,14.5736 249.9933,17.8336 249.9933,31.2983 249.9933,44.763 249.9933,58.2277 249.9933,71.69240000000001 249.9933,85.1571 249.9933,98.6217 249.9933,112.0864 249.9933,125.5511 249.9933,139.0158 249.9933,152.4805 249.9933,165.9452 249.9933,179.4099 249.9933,192.8746 249.9933,206.3393 249.9933,219.8039 249.9933,233.2686 249.9933,246.7333 246.7333,249.9933" style="fill:none;stroke:rgb(0,0,0);stroke-width:1.0" />
</g>
<g
value="0.0031349998898804188"
transform="0">
<polygon points="246.7333,247.7256 233.2686,247.7256 219.8039,247.7256 206.3393,247.7256 192.8746,247.7256 179.4099,247.7256 165.9452,247.7256 152.4805,247.7256 139.0158,247.7256 125.5511,247.7256 112.0864,247.7256 98.6217,247.7256 85.1571,247.7256 71.69240000000001,247.7256 58.2277,247.7256 44.763,247.7256 31.2983,247.7256 17.8336,247.7256 16.8414,246.7333 16.8414,233.2686 16.8414,219.8039 16.8414,206.3393 16.8414,192.8746 16.8414,179.4099 16.8414,165.9452 16.8414,152.4805 16.8414,139.0158 16.8414,125.5511 16.8414,112.0864 16.8414,98.6217 16.8414,85.1571 16.8414,71.69240000000001 16.8414,58.2277 16.8414,44.763 16.8414,31.2983 16.8414,17.8336 17.8336,16.8414 31.2983,16.8414 44.763,16.8414 58.2277,16.8414 71.69240000000001,16.8414 85.1571,16.8414 98.6217,16.8414 112.0864,16.8414 125.5511,16.8414 139.0158,16.8414 152.4805,16.8414 165.9452,16.8414 179.4099,16.8414 192.8746,16.8414 206.3393,16.8414 219.8039,16.8414 233.2686,16.8414 246.7333,16.8414 247.7256,17.8336 247.7256,31.2983 247.7256,44.763 247.7256,58.2277 247.7256,71.69240000000001 247.7256,85.1571 247.7256,98.6217 247.7256,112.0864 247.7256,125.5511 247.7256,139.0158 247.7256,152.4805 247.7256,165.9452 247.7256,179.4099 247.7256,192.8746 247.7256,206.3393 247.7256,219.8039 247.7256,233.2686 247.7256,246.7333 246.7333,247.7256" style="fill:none;stroke:rgb(0,0,0);stroke-width:1.0" />
</g>
<g
value="0.003705000039190054"
transform="0">
<polygon points="219.1662,219.8039 206.3393,232.6309 193.5123,219.8039 206.3393,206.977 219.1662,219.8039" style="fill:none;stroke:rgb(0,0,0);stroke-width:1.0" />
</g>
<g
value="0.003705000039190054"
transform="0">
<polygon points="98.1966,219.8039 85.1571,232.8435 72.11750000000001,219.8039 85.1571,206.7644 98.1966,219.8039" style="fill:none;stroke:rgb(0,0,0);stroke-width:1.0" />
</g>
<g
value="0.003705000039190054"
transform="0">
<polygon points="233.2686,178.5596 219.8039,178.5596 206.3393,178.5596 192.8746,178.5596 179.4099,178.5596 165.9452,178.5596 152.4805,178.5596 139.0158,178.5596 125.5511,178.5596 112.0864,178.5596 98.6217,178.5596 85.1571,178.5596 71.69240000000001,178.5596 58.2277,178.5596 44.763,178.5596 32.1486,165.9452 32.1486,152.4805 32.1486,139.0158 32.1486,125.5511 32.1486,112.0864 32.1486,98.6217 32.1486,85.1571 32.1486,71.69240000000001 32.1486,58.2277 32.1486,44.763 32.1486,31.2983 44.763,18.6839 58.2277,18.6839 71.69240000000001,18.6839 85.1571,18.6839 98.6217,18.6839 112.0864,18.6839 125.5511,18.6839 139.0158,18.6839 152.4805,18.6839 165.9452,18.6839 179.4099,18.6839 192.8746,18.6839 206.3393,18.6839 219.8039,18.6839 233.2686,18.6839 245.883,31.2983 245.883,44.763 245.883,58.2277 245.883,71.69240000000001 245.883,85.1571 245.883,98.6217 245.883,112.0864 245.883,125.5511 245.883,139.0158 245.883,152.4805 245.883,165.9452 233.2686,178.5596" style="fill:none;stroke:rgb(0,0,0);stroke-width:1.0" />
</g>
<g
value="0.004274999722838402"
transform="0">
<polygon points="218.0324,219.8039 206.3393,231.497 194.6461,219.8039 206.3393,208.1108 218.0324,219.8039" style="fill:none;stroke:rgb(0,0,0);stroke-width:1.0" />
</g>
<g
value="0.004274999722838402"
transform="0">
<polygon points="97.44070000000001,219.8039 85.1571,232.0876 72.8734,219.8039 85.1571,207.5203 97.44070000000001,219.8039" style="fill:none;stroke:rgb(0,0,0);stroke-width:1.0" />
</g>
<g
value="0.004274999722838402"
transform="0">
<polygon points="233.2686,177.0478 219.8039,177.0478 206.3393,177.0478 192.8746,177.0478 179.4099,177.0478 165.9452,177.0478 152.4805,177.0478 139.0158,177.0478 125.5511,177.0478 112.0864,177.0478 98.6217,177.0478 85.1571,177.0478 71.69240000000001,177.0478 58.2277,177.0478 44.763,177.0478 33.6604,165.9452 33.6604,152.4805 33.6604,139.0158 33.6604,125.5511 33.6604,112.0864 33.6604,98.6217 33.6604,85.1571 33.6604,71.69240000000001 33.6604,58.2277 33.6604,44.763 33.6604,31.2983 44.763,20.1957 58.2277,20.1957 71.69240000000001,20.1957 85.1571,20.1957 98.6217,20.1957 112.0864,20.1957 125.5511,20.1957 139.0158,20.1957 152.4805,20.1957 165.9452,20.1957 179.4099,20.1957 192.8746,20.1957 206.3393,20.1957 219.8039,20.1957 233.2686,20.1957 244.3712,31.2983 244.3712,44.763 244.3712,58.2277 244.3712,71.69240000000001 244.3712,85.1571 244.3712,98.6217 244.3712,112.0864 244.3712,125.5511 244.3712,139.0158 244.3712,152.4805 244.3712,165.9452 233.2686,177.0478" style="fill:none;stroke:rgb(0,0,0);stroke-width:1.0" />
</g>
<g
value="0.004844999872148037"
transform="0">
<polygon points="216.8985,219.8039 206.3393,230.3632 195.78,219.8039 206.3393,209.2447 216.8985,219.8039" style="fill:none;stroke:rgb(0,0,0);stroke-width:1.0" />
</g>
<g
value="0.004844999872148037"
transform="0">
<polygon points="96.6848,219.8039 85.1571,231.3317 73.6293,219.8039 85.1571,208.2762 96.6848,219.8039" style="fill:none;stroke:rgb(0,0,0);stroke-width:1.0" />
</g>
<g
value="0.004844999872148037"
transform="0">
<polygon points="233.2686,175.5359 219.8039,175.5359 206.3393,175.5359 192.8746,175.5359 179.4099,175.5359 165.9452,175.5359 152.4805,175.5359 139.0158,175.5359 125.5511,175.5359 112.0864,175.5359 98.6217,175.5359 85.1571,175.5359 71.69240000000001,175.5359 58.2277,175.5359 44.763,175.5359 35.1722,165.9452 35.1722,152.4805 35.1722,139.0158 35.1722,125.5511 35.1722,112.0864 35.1722,98.6217 35.1722,85.1571 35.1722,71.69240000000001 35.1722,58.2277 35.1722,44.763 35.1722,31.2983 44.763,21.7075 58.2277,21.7075 71.69240000000001,21.7075 85.1571,21.7075 98.6217,21.7075 112.0864,21.7075 125.5511,21.7075 139.0158,21.7075 152.4805,21.7075 165.9452,21.7075 179.4099,21.7075 192.8746,21.7075 206.3393,21.7075 219.8039,21.7075 233.2686,21.7075 242.8594,31.2983 242.8594,44.763 242.8594,58.2277 242.8594,71.69240000000001 242.8594,85.1571 242.8594,98.6217 242.8594,112.0864 242.8594,125.5511 242.8594,139.0158 242.8594,152.4805 242.8594,165.9452 233.2686,175.5359" style="fill:none;stroke:rgb(0,0,0);stroke-width:1.0" />
</g>
<g
value="0.005415000021457672"
transform="0">
<polygon points="215.7646,219.8039 206.3393,229.2293 196.9139,219.8039 206.3393,210.3786 215.7646,219.8039" style="fill:none;stroke:rgb(0,0,0);stroke-width:1.0" />
</g>
<g
value="0.005415000021457672"
transform="0">
<polygon points="95.9289,219.8039 85.1571,230.5758 74.3852,219.8039 85.1571,209.0321 95.9289,219.8039" style="fill:none;stroke:rgb(0,0,0);stroke-width:1.0" />
</g>
<g
value="0.005415000021457672"
transform="0">
<polygon points="233.2686,174.0241 219.8039,174.0241 206.3393,174.0241 192.8746,174.0241 179.4099,174.0241 165.9452,174.0241 152.4805,174.0241 139.0158,174.0241 125.5511,174.0241 112.0864,174.0241 98.6217,174.0241 85.1571,174.0241 71.69240000000001,174.0241 58.2277,174.0241 44.763,174.0241 36.684,165.9452 36.684,152.4805 36.684,139.0158 36.684,125.5511 36.684,112.0864 36.684,98.6217 36.684,85.1571 36.684,71.69240000000001 36.684,58.2277 36.684,44.763 36.684,31.2983 44.763,23.2194 58.2277,23.2194 71.69240000000001,23.2194 85.1571,23.2194 98.6217,23.2194 112.0864,23.2194 125.5511,23.2194 139.0158,23.2194 152.4805,23.2194 165.9452,23.2194 179.4099,23.2194 192.8746,23.2194 206.3393,23.2194 219.8039,23.2194 233.2686,23.2194 241.3476,31.2983 241.3476,44.763 241.3476,58.2277 241.3476,71.69240000000001 241.3476,85.1571 241.3476,98.6217 241.3476,112.0864 241.3476,125.5511 241.3476,139.0158 241.3476,152.4805 241.3476,165.9452 233.2686,174.0241" style="fill:none;stroke:rgb(0,0,0);stroke-width:1.0" />
</g>
<g
value="0.00598499970510602"
transform="0">
<polygon points="214.6308,219.8039 206.3393,228.0955 198.0477,219.8039 206.3393,211.5124 214.6308,219.8039" style="fill:none;stroke:rgb(0,0,0);stroke-width:1.0" />
</g>
<g
value="0.00598499970510602"
transform="0">
<polygon points="95.173,219.8039 85.1571,229.8198 75.14109999999999,219.8039 85.1571,209.788 95.173,219.8039" style="fill:none;stroke:rgb(0,0,0);stroke-width:1.0" />
</g>
<g
value="0.00598499970510602"
transform="0">
<polygon points="233.2686,172.5123 219.8039,172.5123 206.3393,172.5123 192.8746,172.5123 179.4099,172.5123 165.9452,172.5123 152.4805,172.5123 139.0158,172.5123 125.5511,172.5123 112.0864,172.5123 98.6217,172.5123 85.1571,172.5123 71.69240000000001,172.5123 58.2277,172.5123 44.763,172.5123 38.1959,165.9452 38.1959,152.4805 38.1959,139.0158 38.1959,125.5511 38.1959,112.0864 38.1959,98.6217 38.1959,85.1571 38.1959,71.69240000000001 38.1959,58.2277 38.1959,44.763 38.1959,31.2983 44.763,24.7312 58.2277,24.7312 71.69240000000001,24.7312 85.1571,24.7312 98.6217,24.7312 112.0864,24.7312 125.5511,24.7312 139.0158,24.7312 152.4805,24.7312 165.9452,24.7312 179.4099,24.7312 192.8746,24.7312 206.3393,24.7312 219.8039,24.7312 233.2686,24.7312 239.8358,31.2983 239.8358,44.763 239.8358,58.2277 239.8358,71.69240000000001 239.8358,85.1571 239.8358,98.6217 239.8358,112.0864 239.8358,125.5511 239.8358,139.0158 239.8358,152.4805 239.8358,165.9452 233.2686,172.5123" style="fill:none;stroke:rgb(0,0,0);stroke-width:1.0" />
</g>
<g
value="0.006554999854415655"
transform="0">
<polygon points="213.4969,219.8039 206.3393,226.9616 199.1816,219.8039 206.3393,212.6463 213.4969,219.8039" style="fill:none;stroke:rgb(0,0,0);stroke-width:1.0" />
</g>
<g
value="0.006554999854415655"
transform="0">
<polygon points="94.4171,219.8039 85.1571,229.0639 75.89700000000001,219.8039 85.1571,210.5439 94.4171,219.8039" style="fill:none;stroke:rgb(0,0,0);stroke-width:1.0" />
</g>
<g
value="0.006554999854415655"
transform="0">
<polygon points="233.2686,171.0005 219.8039,171.0005 206.3393,171.0005 192.8746,171.0005 179.4099,171.0005 165.9452,171.0005 152.4805,171.0005 139.0158,171.0005 125.5511,171.0005 112.0864,171.0005 98.6217,171.0005 85.1571,171.0005 71.69240000000001,171.0005 58.2277,171.0005 44.763,171.0005 39.7077,165.9452 39.7077,152.4805 39.7077,139.0158 39.7077,125.5511 39.7077,112.0864 39.7077,98.6217 39.7077,85.1571 39.7077,71.69240000000001 39.7077,58.2277 39.7077,44.763 39.7077,31.2983 44.763,26.243 58.2277,26.243 71.69240000000001,26.243 85.1571,26.243 98.6217,26.243 112.0864,26.243 125.5511,26.243 139.0158,26.243 152.4805,26.243 165.9452,26.243 179.4099,26.243 192.8746,26.243 206.3393,26.243 219.8039,26.243 233.2686,26.243 238.3239,31.2983 238.3239,44.763 238.3239,58.2277 238.3239,71.69240000000001 238.3239,85.1571 238.3239,98.6217 238.3239,112.0864 238.3239,125.5511 238.3239,139.0158 238.3239,152.4805 238.3239,165.9452 233.2686,171.0005" style="fill:none;stroke:rgb(0,0,0);stroke-width:1.0" />
</g>
<g
value="0.007124999538064003"
transform="0">
<polygon points="212.3631,219.8039 206.3393,225.8277 200.3154,219.8039 206.3393,213.7801 212.3631,219.8039" style="fill:none;stroke:rgb(0,0,0);stroke-width:1.0" />
</g>
<g
value="0.007124999538064003"
transform="0">
<polygon points="93.66119999999999,219.8039 85.1571,228.308 76.65300000000001,219.8039 85.1571,211.2998 93.66119999999999,219.8039" style="fill:none;stroke:rgb(0,0,0);stroke-width:1.0" />
</g>
<g
value="0.00712500000372529"
transform="0">
<polygon points="233.2686,169.4887 219.8039,169.4887 206.3393,169.4887 192.8746,169.4887 179.4099,169.4887 165.9452,169.4887 152.4805,169.4887 139.0158,169.4887 125.5511,169.4887 112.0864,169.4887 98.6217,169.4887 85.1571,169.4887 71.69240000000001,169.4887 58.2277,169.4887 44.763,169.4887 41.2195,165.9452 41.2195,152.4805 41.2195,139.0158 41.2195,125.5511 41.2195,112.0864 41.2195,98.6217 41.2195,85.1571 41.2195,71.69240000000001 41.2195,58.2277 41.2195,44.763 41.2195,31.2983 44.763,27.7548 58.2277,27.7548 71.69240000000001,27.7548 85.1571,27.7548 98.6217,27.7548 112.0864,27.7548 125.5511,27.7548 139.0158,27.7548 152.4805,27.7548 165.9452,27.7548 179.4099,27.7548 192.8746,27.7548 206.3393,27.7548 219.8039,27.7548 233.2686,27.7548 236.8121,31.2983 236.8121,44.763 236.8121,58.2277 236.8121,71.69240000000001 236.8121,85.1571 236.8121,98.6217 236.8121,112.0864 236.8121,125.5511 236.8121,139.0158 236.8121,152.4805 236.8121,165.9452 233.2686,169.4887" style="fill:none;stroke:rgb(0,0,0);stroke-width:1.0" />
</g>
<g
value="0.007694999687373638"
transform="0">
<polygon points="211.2292,219.8039 206.3393,224.6939 201.4493,219.8039 206.3393,214.914 211.2292,219.8039" style="fill:none;stroke:rgb(0,0,0);stroke-width:1.0" />
</g>
<g
value="0.007694999687373638"
transform="0">
<polygon points="92.9053,219.8039 85.1571,227.5521 77.4089,219.8039 85.1571,212.0557 92.9053,219.8039" style="fill:none;stroke:rgb(0,0,0);stroke-width:1.0" />
</g>
<g
value="0.007694999687373638"
transform="0">
<polygon points="233.2686,167.9769 219.8039,167.9769 206.3393,167.9769 192.8746,167.9769 179.4099,167.9769 165.9452,167.9769 152.4805,167.9769 139.0158,167.9769 125.5511,167.9769 112.0864,167.9769 98.6217,167.9769 85.1571,167.9769 71.69240000000001,167.9769 58.2277,167.9769 44.763,167.9769 42.7313,165.9452 42.7313,152.4805 42.7313,139.0158 42.7313,125.5511 42.7313,112.0864 42.7313,98.6217 42.7313,85.1571 42.7313,71.69240000000001 42.7313,58.2277 42.7313,44.763 42.7313,31.2983 44.763,29.2666 58.2277,29.2666 71.69240000000001,29.2666 85.1571,29.2666 98.6217,29.2666 112.0864,29.2666 125.5511,29.2666 139.0158,29.2666 152.4805,29.2666 165.9452,29.2666 179.4099,29.2666 192.8746,29.2666 206.3393,29.2666 219.8039,29.2666 233.2686,29.2666 235.3003,31.2983 235.3003,44.763 235.3003,58.2277 235.3003,71.69240000000001 235.3003,85.1571 235.3003,98.6217 235.3003,112.0864 235.3003,125.5511 235.3003,139.0158 235.3003,152.4805 235.3003,165.9452 233.2686,167.9769" style="fill:none;stroke:rgb(0,0,0);stroke-width:1.0" />
</g>
<g
value="0.008264999836683273"
transform="0">
<polygon points="210.0953,219.8039 206.3393,223.56 202.5832,219.8039 206.3393,216.0479 210.0953,219.8039" style="fill:none;stroke:rgb(0,0,0);stroke-width:1.0" />
</g>
<g
value="0.008264999836683273"
transform="0">
<polygon points="92.1493,219.8039 85.1571,226.7962 78.1648,219.8039 85.1571,212.8117 92.1493,219.8039" style="fill:none;stroke:rgb(0,0,0);stroke-width:1.0" />
</g>
<g
value="0.008264999836683273"
transform="0">
<polygon points="233.2686,166.4651 219.8039,166.4651 206.3393,166.4651 192.8746,166.4651 179.4099,166.4651 165.9452,166.4651 152.4805,166.4651 139.0158,166.4651 125.5511,166.4651 112.0864,166.4651 98.6217,166.4651 85.1571,166.4651 71.69240000000001,166.4651 58.2277,166.4651 44.763,166.4651 44.2431,165.9452 44.2431,152.4805 44.2431,139.0158 44.2431,125.5511 44.2431,112.0864 44.2431,98.6217 44.2431,85.1571 44.2431,71.69240000000001 44.2431,58.2277 44.2431,44.763 44.2431,31.2983 44.763,30.7784 58.2277,30.7784 71.69240000000001,30.7784 85.1571,30.7784 98.6217,30.7784 112.0864,30.7784 125.5511,30.7784 139.0158,30.7784 152.4805,30.7784 165.9452,30.7784 179.4099,30.7784 192.8746,30.7784 206.3393,30.7784 219.8039,30.7784 233.2686,30.7784 233.7885,31.2983 233.7885,44.763 233.7885,58.2277 233.7885,71.69240000000001 233.7885,85.1571 233.7885,98.6217 233.7885,112.0864 233.7885,125.5511 233.7885,139.0158 233.7885,152.4805 233.7885,165.9452 233.2686,166.4651" style="fill:none;stroke:rgb(0,0,0);stroke-width:1.0" />
</g>
<g
value="0.008834999985992908"
transform="0">
<polygon points="208.9615,219.8039 206.3393,222.4262 203.717,219.8039 206.3393,217.1817 208.9615,219.8039" style="fill:none;stroke:rgb(0,0,0);stroke-width:1.0" />
</g>
<g
value="0.008834999985992908"
transform="0">
<polygon points="91.3934,219.8039 85.1571,226.0403 78.9207,219.8039 85.1571,213.5676 91.3934,219.8039" style="fill:none;stroke:rgb(0,0,0);stroke-width:1.0" />
</g>
<g
value="0.008834999985992908"
transform="0">
<polygon points="206.3393,150.9926 192.8746,150.9926 179.4099,150.9926 165.9452,150.9926 152.4805,150.9926 139.0158,150.9926 125.5511,150.9926 112.0864,150.9926 98.6217,150.9926 85.1571,150.9926 71.69240000000001,150.9926 59.7156,139.0158 59.7156,125.5511 59.7156,112.0864 59.7156,98.6217 59.7156,85.1571 59.7156,71.69240000000001 59.7156,58.2277 71.69240000000001,46.2509 85.1571,46.2509 98.6217,46.2509 112.0864,46.2509 125.5511,46.2509 139.0158,46.2509 152.4805,46.2509 165.9452,46.2509 179.4099,46.2509 192.8746,46.2509 206.3393,46.2509 218.316,58.2277 218.316,71.69240000000001 218.316,85.1571 218.316,98.6217 218.316,112.0864 218.316,125.5511 218.316,139.0158 206.3393,150.9926" style="fill:none;stroke:rgb(0,0,0);stroke-width:1.0" />
</g>
<g
value="0.009405000135302544"
transform="0">
<polygon points="207.8276,219.8039 206.3393,221.2923 204.8509,219.8039 206.3393,218.3156 207.8276,219.8039" style="fill:none;stroke:rgb(0,0,0);stroke-width:1.0" />
</g>
<g
value="0.009405000135302544"
transform="0">
<polygon points="90.6375,219.8039 85.1571,225.2844 79.67659999999999,219.8039 85.1571,214.3235 90.6375,219.8039" style="fill:none;stroke:rgb(0,0,0);stroke-width:1.0" />
</g>
<g
value="0.009405000135302544"
transform="0">
<polygon points="206.3393,148.7249 192.8746,148.7249 179.4099,148.7249 165.9452,148.7249 152.4805,148.7249 139.0158,148.7249 125.5511,148.7249 112.0864,148.7249 98.6217,148.7249 85.1571,148.7249 71.69240000000001,148.7249 61.9833,139.0158 61.9833,125.5511 61.9833,112.0864 61.9833,98.6217 61.9833,85.1571 61.9833,71.69240000000001 61.9833,58.2277 71.69240000000001,48.5186 85.1571,48.5186 98.6217,48.5186 112.0864,48.5186 125.5511,48.5186 139.0158,48.5186 152.4805,48.5186 165.9452,48.5186 179.4099,48.5186 192.8746,48.5186 206.3393,48.5186 216.0483,58.2277 216.0483,71.69240000000001 216.0483,85.1571 216.0483,98.6217 216.0483,112.0864 216.0483,125.5511 216.0483,139.0158 206.3393,148.7249" style="fill:none;stroke:rgb(0,0,0);stroke-width:1.0" />
</g>
<g
value="0.009975000284612179"
transform="0">
<polygon points="206.6938,219.8039 206.3393,220.1584 205.9847,219.8039 206.3393,219.4494 206.6938,219.8039" style="fill:none;stroke:rgb(0,0,0);stroke-width:1.0" />
</g>
<g
value="0.009975000284612179"
transform="0">
<polygon points="89.88160000000001,219.8039 85.1571,224.5285 80.4325,219.8039 85.1571,215.0794 89.88160000000001,219.8039" style="fill:none;stroke:rgb(0,0,0);stroke-width:1.0" />
</g>
<g
value="0.009975000284612179"
transform="0">
<polygon points="206.3393,146.4572 192.8746,146.4572 179.4099,146.4572 165.9452,146.4572 152.4805,146.4572 139.0158,146.4572 125.5511,146.4572 112.0864,146.4572 98.6217,146.4572 85.1571,146.4572 71.69240000000001,146.4572 64.251,139.0158 64.251,125.5511 64.251,112.0864 64.251,98.6217 64.251,85.1571 64.251,71.69240000000001 64.251,58.2277 71.69240000000001,50.7863 85.1571,50.7863 98.6217,50.7863 112.0864,50.7863 125.5511,50.7863 139.0158,50.7863 152.4805,50.7863 165.9452,50.7863 179.4099,50.7863 192.8746,50.7863 206.3393,50.7863 213.7806,58.2277 213.7806,71.69240000000001 213.7806,85.1571 213.7806,98.6217 213.7806,112.0864 213.7806,125.5511 213.7806,139.0158 206.3393,146.4572" style="fill:none;stroke:rgb(0,0,0);stroke-width:1.0" />
</g>
<g
value="0.01054499950259924"
transform="0">
<polygon points="89.12569999999999,219.8039 85.1571,223.7726 81.1884,219.8039 85.1571,215.8353 89.12569999999999,219.8039" style="fill:none;stroke:rgb(0,0,0);stroke-width:1.0" />
</g>
<g
value="0.01054499950259924"
transform="0">
<polygon points="206.3393,144.1895 192.8746,144.1895 179.4099,144.1895 165.9452,144.1895 152.4805,144.1895 139.0158,144.1895 125.5511,144.1895 112.0864,144.1895 98.6217,144.1895 85.1571,144.1895 71.69240000000001,144.1895 66.5187,139.0158 66.5187,125.5511 66.5187,112.0864 66.5187,98.6217 66.5187,85.1571 66.5187,71.69240000000001 66.5187,58.2277 71.69240000000001,53.054 85.1571,53.054 98.6217,53.054 112.0864,53.054 125.5511,53.054 139.0158,53.054 152.4805,53.054 165.9452,53.054 179.4099,53.054 192.8746,53.054 206.3393,53.054 211.5129,58.2277 211.5129,71.69240000000001 211.5129,85.1571 211.5129,98.6217 211.5129,112.0864 211.5129,125.5511 211.5129,139.0158 206.3393,144.1895" style="fill:none;stroke:rgb(0,0,0);stroke-width:1.0" />
</g>
<g
value="0.011114999651908875"
transform="0">
<polygon points="88.3698,219.8039 85.1571,223.0167 81.9443,219.8039 85.1571,216.5912 88.3698,219.8039" style="fill:none;stroke:rgb(0,0,0);stroke-width:1.0" />
</g>
<g
value="0.011114999651908875"
transform="0">
<polygon points="206.3393,141.9217 192.8746,141.9217 179.4099,141.9217 165.9452,141.9217 152.4805,141.9217 139.0158,141.9217 125.5511,141.9217 112.0864,141.9217 98.6217,141.9217 85.1571,141.9217 71.69240000000001,141.9217 68.7864,139.0158 68.7864,125.5511 68.7864,112.0864 68.7864,98.6217 68.7864,85.1571 68.7864,71.69240000000001 68.7864,58.2277 71.69240000000001,55.3218 85.1571,55.3218 98.6217,55.3218 112.0864,55.3218 125.5511,55.3218 139.0158,55.3218 152.4805,55.3218 165.9452,55.3218 179.4099,55.3218 192.8746,55.3218 206.3393,55.3218 209.2452,58.2277 209.2452,71.69240000000001 209.2452,85.1571 209.2452,98.6217 209.2452,112.0864 209.2452,125.5511 209.2452,139.0158 206.3393,141.9217" style="fill:none;stroke:rgb(0,0,0);stroke-width:1.0" />
</g>
<g
value="0.01168499980121851"
transform="0">
<polygon points="87.6139,219.8039 85.1571,222.2608 82.7002,219.8039 85.1571,217.3471 87.6139,219.8039" style="fill:none;stroke:rgb(0,0,0);stroke-width:1.0" />
</g>
<g
value="0.01168499980121851"
transform="0">
<polygon points="206.3393,139.654 192.8746,139.654 179.4099,139.654 165.9452,139.654 152.4805,139.654 139.0158,139.654 125.5511,139.654 112.0864,139.654 98.6217,139.654 85.1571,139.654 71.69240000000001,139.654 71.05419999999999,139.0158 71.05419999999999,125.5511 71.05419999999999,112.0864 71.05419999999999,98.6217 71.05419999999999,85.1571 71.05419999999999,71.69240000000001 71.05419999999999,58.2277 71.69240000000001,57.5895 85.1571,57.5895 98.6217,57.5895 112.0864,57.5895 125.5511,57.5895 139.0158,57.5895 152.4805,57.5895 165.9452,57.5895 179.4099,57.5895 192.8746,57.5895 206.3393,57.5895 206.9775,58.2277 206.9775,71.69240000000001 206.9775,85.1571 206.9775,98.6217 206.9775,112.0864 206.9775,125.5511 206.9775,139.0158 206.3393,139.654" style="fill:none;stroke:rgb(0,0,0);stroke-width:1.0" />
</g>
<g
value="0.012254999950528145"
transform="0">
<polygon points="86.858,219.8039 85.1571,221.5049 83.45610000000001,219.8039 85.1571,218.103 86.858,219.8039" style="fill:none;stroke:rgb(0,0,0);stroke-width:1.0" />
</g>
<g
value="0.012254999950528145"
transform="0">
<polygon points="189.6156,112.0864 179.4099,122.2921 169.2042,112.0864 179.4099,101.8807 189.6156,112.0864" style="fill:none;stroke:rgb(0,0,0);stroke-width:1.0" />
</g>
<g
value="0.012254999950528145"
transform="0">
<polygon points="112.0864,111.0001 98.6217,111.0001 86.24339999999999,98.6217 86.24339999999999,85.1571 98.6217,72.7787 112.0864,72.7787 124.4648,85.1571 124.4648,98.6217 112.0864,111.0001" style="fill:none;stroke:rgb(0,0,0);stroke-width:1.0" />
</g>
<g
value="0.01282500009983778"
transform="0">
<polygon points="86.10209999999999,219.8039 85.1571,220.749 84.212,219.8039 85.1571,218.8589 86.10209999999999,219.8039" style="fill:none;stroke:rgb(0,0,0);stroke-width:1.0" />
</g>
<g
value="0.01282500009983778"
transform="0">
<polygon points="185.0801,112.0864 179.4099,117.7567 173.7396,112.0864 179.4099,106.4162 185.0801,112.0864" style="fill:none;stroke:rgb(0,0,0);stroke-width:1.0" />
</g>
<g
value="0.01282500009983778"
transform="0">
<polygon points="112.0864,109.4883 98.6217,109.4883 87.7552,98.6217 87.7552,85.1571 98.6217,74.29049999999999 112.0864,74.29049999999999 122.953,85.1571 122.953,98.6217 112.0864,109.4883" style="fill:none;stroke:rgb(0,0,0);stroke-width:1.0" />
</g>
<g
value="0.013395000249147415"
transform="0">
<polygon points="85.3462,219.8039 85.1571,219.9931 84.9679,219.8039 85.1571,219.6148 85.3462,219.8039" style="fill:none;stroke:rgb(0,0,0);stroke-width:1.0" />
</g>
<g
value="0.013395000249147415"
transform="0">
<polygon points="180.5447,112.0864 179.4099,113.2213 178.275,112.0864 179.4099,110.9516 180.5447,112.0864" style="fill:none;stroke:rgb(0,0,0);stroke-width:1.0" />
</g>
<g
value="0.013395000249147415"
transform="0">
<polygon points="112.0864,107.9765 98.6217,107.9765 89.267,98.6217 89.267,85.1571 98.6217,75.8023 112.0864,75.8023 121.4412,85.1571 121.4412,98.6217 112.0864,107.9765" style="fill:none;stroke:rgb(0,0,0);stroke-width:1.0" />
</g>
<g
value="0.013964999467134476"
transform="0">
<polygon points="112.0864,106.4647 98.6217,106.4647 90.7788,98.6217 90.7788,85.1571 98.6217,77.3141 112.0864,77.3141 119.9294,85.1571 119.9294,98.6217 112.0864,106.4647" style="fill:none;stroke:rgb(0,0,0);stroke-width:1.0" />
</g>
<g
value="0.014534999616444111"
transform="0">
<polygon points="112.0864,104.9529 98.6217,104.9529 92.2906,98.6217 92.2906,85.1571 98.6217,78.8259 112.0864,78.8259 118.4175,85.1571 118.4175,98.6217 112.0864,104.9529" style="fill:none;stroke:rgb(0,0,0);stroke-width:1.0" />
</g>
<g
value="0.015104999765753746"
transform="0">
<polygon points="112.0864,103.441 98.6217,103.441 93.80240000000001,98.6217 93.80240000000001,85.1571 98.6217,80.3378 112.0864,80.3378 116.9057,85.1571 116.9057,98.6217 112.0864,103.441" style="fill:none;stroke:rgb(0,0,0);stroke-width:1.0" />
</g>
<g
value="0.015674998983740807"
transform="0">
<polygon points="112.0864,101.9292 98.6217,101.9292 95.3143,98.6217 95.3143,85.1571 98.6217,81.8496 112.0864,81.8496 115.3939,85.1571 115.3939,98.6217 112.0864,101.9292" style="fill:none;stroke:rgb(0,0,0);stroke-width:1.0" />
</g>
<g
value="0.016245000064373016"
transform="0">
<polygon points="112.0864,100.4174 98.6217,100.4174 96.8261,98.6217 96.8261,85.1571 98.6217,83.3614 112.0864,83.3614 113.8821,85.1571 113.8821,98.6217 112.0864,100.4174" style="fill:none;stroke:rgb(0,0,0);stroke-width:1.0" />
</g>
<g
value="0.016814999282360077"
transform="0">
<polygon points="112.0864,98.90560000000001 98.6217,98.90560000000001 98.3379,98.6217 98.3379,85.1571 98.6217,84.8732 112.0864,84.8732 112.3703,85.1571 112.3703,98.6217 112.0864,98.90560000000001" style="fill:none;stroke:rgb(0,0,0);stroke-width:1.0" />
</g>
</svg>
