<?xml version="1.0"?>
<!DOCTYPE svg PUBLIC "-//W3C//DTD SVG 1.1//EN" "http://www.w3.org/Graphics/SVG/1.1/DTD/svg11.dtd">
                <svg xmlns="http://www.w3.org/2000/svg" version="1.1"
    width="264.5669291338583"
    height="264.5669291338583"
    viewbox="0 0 264.5669291338583 264.5669291338583">
                <desc>Laser SVG Slices from Object: Sphere_net. Exported from Blender3D with the Laser Slicer Script</desc>

<g
transform="0">
<polygon points="196.0175, 197.2697 132.2835, 197.2697 68.5494, 197.2697 67.2972, 196.0175 67.2972, 132.2835 67.2972, 68.5494 68.5494, 67.2972 132.2835, 67.2972 196.0175, 67.2972 197.2697, 68.5494 197.2697, 132.2835 197.2697, 196.0175 196.0175, 197.2697" style="fill:none;stroke:rgb(0,0,0);stroke-width:1.0" />
</g>
<g
transform="0">
<polygon points="196.0175, 199.3143 132.2835, 199.3143 68.5494, 199.3143 65.2527, 196.0175 65.2527, 132.2835 65.2527, 68.5494 68.5494, 65.2527 132.2835, 65.2527 196.0175, 65.2527 199.3143, 68.5494 199.3143, 132.2835 199.3143, 196.0175 196.0175, 199.3143" style="fill:none;stroke:rgb(0,0,0);stroke-width:1.0" />
</g>
<g
transform="0">
<polygon points="196.0175, 201.3589 132.2835, 201.3589 68.5494, 201.3589 63.208099999999995, 196.0175 63.208099999999995, 132.2835 63.208099999999995, 68.5494 68.5494, 63.208099999999995 132.2835, 63.208099999999995 196.0175, 63.208099999999995 201.3589, 68.5494 201.3589, 132.2835 201.3589, 196.0175 196.0175, 201.3589" style="fill:none;stroke:rgb(0,0,0);stroke-width:1.0" />
</g>
<g
transform="0">
<polygon points="196.0175, 203.4034 132.2835, 203.4034 68.5494, 203.4034 61.163500000000006, 196.0175 61.163500000000006, 132.2835 61.163500000000006, 68.5494 68.5494, 61.163500000000006 132.2835, 61.163500000000006 196.0175, 61.163500000000006 203.4034, 68.5494 203.4034, 132.2835 203.4034, 196.0175 196.0175, 203.4034" style="fill:none;stroke:rgb(0,0,0);stroke-width:1.0" />
</g>
<g
transform="0">
<polygon points="196.0175, 205.448 132.2835, 205.448 68.5494, 205.448 59.1189, 196.0175 59.1189, 132.2835 59.1189, 68.5494 68.5494, 59.1189 132.2835, 59.1189 196.0175, 59.1189 205.448, 68.5494 205.448, 132.2835 205.448, 196.0175 196.0175, 205.448" style="fill:none;stroke:rgb(0,0,0);stroke-width:1.0" />
</g>
<g
transform="0">
<polygon points="196.0175, 207.4926 132.2835, 207.4926 68.5494, 207.4926 57.0743, 196.0175 57.0743, 132.2835 57.0743, 68.5494 68.5494, 57.0743 132.2835, 57.0743 196.0175, 57.0743 207.4926, 68.5494 207.4926, 132.2835 207.4926, 196.0175 196.0175, 207.4926" style="fill:none;stroke:rgb(0,0,0);stroke-width:1.0" />
</g>
<g
transform="0">
<polygon points="196.0175, 209.5372 132.2835, 209.5372 68.5494, 209.5372 55.0298, 196.0175 55.0298, 132.2835 55.0298, 68.5494 68.5494, 55.0298 132.2835, 55.0298 196.0175, 55.0298 209.5372, 68.5494 209.5372, 132.2835 209.5372, 196.0175 196.0175, 209.5372" style="fill:none;stroke:rgb(0,0,0);stroke-width:1.0" />
</g>
<g
transform="0">
<polygon points="196.0175, 211.5817 132.2835, 211.5817 68.5494, 211.5817 52.9852, 196.0175 52.9852, 132.2835 52.9852, 68.5494 68.5494, 52.9852 132.2835, 52.9852 196.0175, 52.9852 211.5817, 68.5494 211.5817, 132.2835 211.5817, 196.0175 196.0175, 211.5817" style="fill:none;stroke:rgb(0,0,0);stroke-width:1.0" />
</g>
<g
transform="0">
<polygon points="196.0175, 213.6263 132.2835, 213.6263 68.5494, 213.6263 50.9406, 196.0175 50.9406, 132.2835 50.9406, 68.5494 68.5494, 50.9406 132.2835, 50.9406 196.0175, 50.9406 213.6263, 68.5494 213.6263, 132.2835 213.6263, 196.0175 196.0175, 213.6263" style="fill:none;stroke:rgb(0,0,0);stroke-width:1.0" />
</g>
<g
transform="0">
<polygon points="196.0175, 215.6709 132.2835, 215.6709 68.5494, 215.6709 48.896, 196.0175 48.896, 132.2835 48.896, 68.5494 68.5494, 48.896 132.2835, 48.896 196.0175, 48.896 215.6709, 68.5494 215.6709, 132.2835 215.6709, 196.0175 196.0175, 215.6709" style="fill:none;stroke:rgb(0,0,0);stroke-width:1.0" />
</g>
<g
transform="0">
<polygon points="196.0175, 217.7155 132.2835, 217.7155 68.5494, 217.7155 46.8514, 196.0175 46.8514, 132.2835 46.8514, 68.5494 68.5494, 46.8514 132.2835, 46.8514 196.0175, 46.8514 217.7155, 68.5494 217.7155, 132.2835 217.7155, 196.0175 196.0175, 217.7155" style="fill:none;stroke:rgb(0,0,0);stroke-width:1.0" />
</g>
<g
transform="0">
<polygon points="196.0175, 219.7601 132.2835, 219.7601 68.5494, 219.7601 44.8069, 196.0175 44.8069, 132.2835 44.8069, 68.5494 68.5494, 44.8069 132.2835, 44.8069 196.0175, 44.8069 219.7601, 68.5494 219.7601, 132.2835 219.7601, 196.0175 196.0175, 219.7601" style="fill:none;stroke:rgb(0,0,0);stroke-width:1.0" />
</g>
<g
transform="0">
<polygon points="196.0175, 221.8046 132.2835, 221.8046 68.5494, 221.8046 42.7623, 196.0175 42.7623, 132.2835 42.7623, 68.5494 68.5494, 42.7623 132.2835, 42.7623 196.0175, 42.7623 221.8046, 68.5494 221.8046, 132.2835 221.8046, 196.0175 196.0175, 221.8046" style="fill:none;stroke:rgb(0,0,0);stroke-width:1.0" />
</g>
<g
transform="0">
<polygon points="196.0175, 223.8492 132.2835, 223.8492 68.5494, 223.8492 40.7177, 196.0175 40.7177, 132.2835 40.7177, 68.5494 68.5494, 40.7177 132.2835, 40.7177 196.0175, 40.7177 223.8492, 68.5494 223.8492, 132.2835 223.8492, 196.0175 196.0175, 223.8492" style="fill:none;stroke:rgb(0,0,0);stroke-width:1.0" />
</g>
<g
transform="0">
<polygon points="196.0175, 225.8938 132.2835, 225.8938 68.5494, 225.8938 38.6731, 196.0175 38.6731, 132.2835 38.6731, 68.5494 68.5494, 38.6731 132.2835, 38.6731 196.0175, 38.6731 225.8938, 68.5494 225.8938, 132.2835 225.8938, 196.0175 196.0175, 225.8938" style="fill:none;stroke:rgb(0,0,0);stroke-width:1.0" />
</g>
<g
transform="0">
<polygon points="196.0175, 227.9384 132.2835, 227.9384 68.5494, 227.9384 36.6286, 196.0175 36.6286, 132.2835 36.6286, 68.5494 68.5494, 36.6286 132.2835, 36.6286 196.0175, 36.6286 227.9384, 68.5494 227.9384, 132.2835 227.9384, 196.0175 196.0175, 227.9384" style="fill:none;stroke:rgb(0,0,0);stroke-width:1.0" />
</g>
<g
transform="0">
<polygon points="196.0175, 229.9829 132.2835, 229.9829 68.5494, 229.9829 34.584, 196.0175 34.584, 132.2835 34.584, 68.5494 68.5494, 34.584 132.2835, 34.584 196.0175, 34.584 229.983, 68.5494 229.983, 132.2835 229.983, 196.0175 196.0175, 229.9829" style="fill:none;stroke:rgb(0,0,0);stroke-width:1.0" />
</g>
<g
transform="0">
<polygon points="196.0175, 232.0275 132.2835, 232.0275 68.5494, 232.0275 32.5394, 196.0175 32.5394, 132.2835 32.5394, 68.5494 68.5494, 32.5394 132.2835, 32.5394 196.0175, 32.5394 232.0275, 68.5494 232.0275, 132.2835 232.0275, 196.0175 196.0175, 232.0275" style="fill:none;stroke:rgb(0,0,0);stroke-width:1.0" />
</g>
<g
transform="0">
<polygon points="196.0175, 234.0721 132.2835, 234.0721 68.5494, 234.0721 30.4948, 196.0175 30.4948, 132.2835 30.4948, 68.5494 68.5494, 30.4948 132.2835, 30.4948 196.0175, 30.4948 234.0721, 68.5494 234.0721, 132.2835 234.0721, 196.0175 196.0175, 234.0721" style="fill:none;stroke:rgb(0,0,0);stroke-width:1.0" />
</g>
<g
transform="0">
<polygon points="196.0175, 236.1167 132.2835, 236.1167 68.5494, 236.1167 28.4502, 196.0175 28.4502, 132.2835 28.4502, 68.5494 68.5494, 28.4502 132.2835, 28.4502 196.0175, 28.4502 236.1167, 68.5494 236.1167, 132.2835 236.1167, 196.0175 196.0175, 236.1167" style="fill:none;stroke:rgb(0,0,0);stroke-width:1.0" />
</g>
<g
transform="0">
<polygon points="196.0175, 238.1613 132.2835, 238.1613 68.5494, 238.1613 26.4057, 196.0175 26.4057, 132.2835 26.4057, 68.5494 68.5494, 26.4057 132.2835, 26.4057 196.0175, 26.4057 238.1613, 68.5494 238.1613, 132.2835 238.1613, 196.0175 196.0175, 238.1613" style="fill:none;stroke:rgb(0,0,0);stroke-width:1.0" />
</g>
<g
transform="0">
<polygon points="196.0175, 240.2058 132.2835, 240.2058 68.5494, 240.2058 24.3611, 196.0175 24.3611, 132.2835 24.3611, 68.5494 68.5494, 24.3611 132.2835, 24.3611 196.0175, 24.3611 240.2058, 68.5494 240.2058, 132.2835 240.2058, 196.0175 196.0175, 240.2058" style="fill:none;stroke:rgb(0,0,0);stroke-width:1.0" />
</g>
<g
transform="0">
<polygon points="196.0175, 242.2504 132.2835, 242.2504 68.5494, 242.2504 22.3165, 196.0175 22.3165, 132.2835 22.3165, 68.5494 68.5494, 22.3165 132.2835, 22.3165 196.0175, 22.3165 242.2504, 68.5494 242.2504, 132.2835 242.2504, 196.0175 196.0175, 242.2504" style="fill:none;stroke:rgb(0,0,0);stroke-width:1.0" />
</g>
<g
transform="0">
<polygon points="196.0175, 244.295 132.2835, 244.295 68.5494, 244.295 20.2719, 196.0175 20.2719, 132.2835 20.2719, 68.5494 68.5494, 20.2719 132.2835, 20.2719 196.0175, 20.2719 244.295, 68.5494 244.295, 132.2835 244.295, 196.0175 196.0175, 244.295" style="fill:none;stroke:rgb(0,0,0);stroke-width:1.0" />
</g>
<g
transform="0">
<polygon points="196.0175, 246.33959999999996 132.2835, 246.33959999999996 68.5494, 246.33959999999996 18.2273, 196.0175 18.2273, 132.2835 18.2273, 68.5494 68.5494, 18.2273 132.2835, 18.2273 196.0175, 18.2273 246.33959999999996, 68.5494 246.33959999999996, 132.2835 246.33959999999996, 196.0175 196.0175, 246.33959999999996" style="fill:none;stroke:rgb(0,0,0);stroke-width:1.0" />
</g>
<g
transform="0">
<polygon points="196.0175, 248.3842 132.2835, 248.3842 68.5494, 248.3842 16.1828, 196.0175 16.1828, 132.2835 16.1828, 68.5494 68.5494, 16.1828 132.2835, 16.1828 196.0175, 16.1828 248.3842, 68.5494 248.3842, 132.2835 248.3842, 196.0175 196.0175, 248.3842" style="fill:none;stroke:rgb(0,0,0);stroke-width:1.0" />
</g>
<g
transform="0">
<polygon points="196.0175, 250.42870000000002 132.2835, 250.42870000000002 68.5494, 250.42870000000002 14.1382, 196.0175 14.1382, 132.2835 14.1382, 68.5494 68.5494, 14.1382 132.2835, 14.1382 196.0175, 14.1382 250.42870000000002, 68.5494 250.42870000000002, 132.2835 250.42870000000002, 196.0175 196.0175, 250.42870000000002" style="fill:none;stroke:rgb(0,0,0);stroke-width:1.0" />
</g>
<g
transform="0">
<polygon points="196.0175, 252.4733 132.2835, 252.4733 68.5494, 252.4733 12.0936, 196.0175 12.0936, 132.2835 12.0936, 68.5494 68.5494, 12.0936 132.2835, 12.0936 196.0175, 12.0936 252.4733, 68.5494 252.4733, 132.2835 252.4733, 196.0175 196.0175, 252.4733" style="fill:none;stroke:rgb(0,0,0);stroke-width:1.0" />
</g>
<g
transform="0">
<polygon points="196.0175, 254.51789999999997 132.2835, 254.51789999999997 68.5494, 254.51789999999997 10.049, 196.0175 10.049, 132.2835 10.049, 68.5494 68.5494, 10.049 132.2835, 10.049 196.0175, 10.049 254.51789999999997, 68.5494 254.51789999999997, 132.2835 254.51789999999997, 196.0175 196.0175, 254.51789999999997" style="fill:none;stroke:rgb(0,0,0);stroke-width:1.0" />
</g>
<g
transform="0">
<polygon points="196.0175, 256.5625 132.2835, 256.5625 68.5494, 256.5625 8.0045, 196.0175 8.0045, 132.2835 8.0045, 68.5494 68.5494, 8.0044 132.2835, 8.0044 196.0175, 8.0044 256.5625, 68.5494 256.5625, 132.2835 256.5625, 196.0175 196.0175, 256.5625" style="fill:none;stroke:rgb(0,0,0);stroke-width:1.0" />
</g>
</svg>
